<mxfile host="65bd71144e">
    <diagram name="Page-1" id="-fq91UTypDI7or2UGTcL">
        <mxGraphModel dx="1990" dy="1910" grid="1" gridSize="10" guides="1" tooltips="1" connect="1" arrows="1" fold="1" page="1" pageScale="1" pageWidth="827" pageHeight="1169" math="0" shadow="0">
            <root>
                <mxCell id="0"/>
                <mxCell id="1" parent="0"/>
                <mxCell id="gRs2KocOYmxf3VAWl55H-192" value="" style="rounded=0;whiteSpace=wrap;html=1;labelBackgroundColor=none;fillColor=#1A1A1A;fillStyle=solid;" parent="1" vertex="1">
                    <mxGeometry x="310" y="-480" width="1420" height="1450" as="geometry"/>
                </mxCell>
                <mxCell id="gRs2KocOYmxf3VAWl55H-132" value="Untitled Layer" style="" parent="0"/>
                <mxCell id="gRs2KocOYmxf3VAWl55H-133" value="Arduino" style="swimlane;whiteSpace=wrap;html=1;strokeColor=#FFFFFF;" parent="gRs2KocOYmxf3VAWl55H-132" vertex="1">
                    <mxGeometry x="570" width="660" height="340" as="geometry">
                        <mxRectangle x="321" y="330" width="140" height="30" as="alternateBounds"/>
                    </mxGeometry>
                </mxCell>
                <mxCell id="gRs2KocOYmxf3VAWl55H-134" value="" style="sketch=0;pointerEvents=1;shadow=0;dashed=0;html=1;strokeColor=#666666;fillColor=#f5f5f5;aspect=fixed;labelPosition=center;verticalLabelPosition=bottom;verticalAlign=top;align=center;outlineConnect=0;shape=mxgraph.vvd.cpu;fontColor=#333333;" parent="gRs2KocOYmxf3VAWl55H-133" vertex="1">
                    <mxGeometry x="280" y="45" width="75" height="75" as="geometry"/>
                </mxCell>
                <mxCell id="gRs2KocOYmxf3VAWl55H-135" style="edgeStyle=orthogonalEdgeStyle;rounded=1;html=1;entryX=0;entryY=0.5;entryDx=0;entryDy=0;exitX=1;exitY=0.75;exitDx=0;exitDy=0;strokeColor=#FFFFFF;" parent="gRs2KocOYmxf3VAWl55H-133" source="gRs2KocOYmxf3VAWl55H-136" target="gRs2KocOYmxf3VAWl55H-140" edge="1">
                    <mxGeometry relative="1" as="geometry"/>
                </mxCell>
                <mxCell id="gRs2KocOYmxf3VAWl55H-136" value="USB port" style="rounded=1;whiteSpace=wrap;html=1;fillColor=#333333;strokeColor=#FFFFFF;fontColor=#FFFFFF;" parent="gRs2KocOYmxf3VAWl55H-133" vertex="1">
                    <mxGeometry x="-50" y="160" width="100" height="30" as="geometry"/>
                </mxCell>
                <mxCell id="gRs2KocOYmxf3VAWl55H-137" style="edgeStyle=orthogonalEdgeStyle;html=1;exitX=0;exitY=0.5;exitDx=0;exitDy=0;entryX=1;entryY=0.25;entryDx=0;entryDy=0;rounded=1;strokeColor=#FFFFFF;" parent="gRs2KocOYmxf3VAWl55H-133" source="gRs2KocOYmxf3VAWl55H-138" target="gRs2KocOYmxf3VAWl55H-136" edge="1">
                    <mxGeometry relative="1" as="geometry"/>
                </mxCell>
                <mxCell id="gRs2KocOYmxf3VAWl55H-138" value="Joystick Library" style="rounded=1;whiteSpace=wrap;html=1;fillColor=#333333;strokeColor=#FFFFFF;fontColor=#FFFFFF;" parent="gRs2KocOYmxf3VAWl55H-133" vertex="1">
                    <mxGeometry x="80" y="105" width="100" height="30" as="geometry"/>
                </mxCell>
                <mxCell id="gRs2KocOYmxf3VAWl55H-139" style="edgeStyle=orthogonalEdgeStyle;rounded=1;html=1;strokeColor=#FFFFFF;" parent="gRs2KocOYmxf3VAWl55H-133" source="gRs2KocOYmxf3VAWl55H-140" target="gRs2KocOYmxf3VAWl55H-142" edge="1">
                    <mxGeometry relative="1" as="geometry"/>
                </mxCell>
                <mxCell id="gRs2KocOYmxf3VAWl55H-140" value="Stored Calibration Values" style="rounded=1;whiteSpace=wrap;html=1;fontColor=#FFFFFF;strokeColor=#FFFFFF;fillColor=#333333;" parent="gRs2KocOYmxf3VAWl55H-133" vertex="1">
                    <mxGeometry x="80" y="215" width="100" height="30" as="geometry"/>
                </mxCell>
                <mxCell id="gRs2KocOYmxf3VAWl55H-141" style="edgeStyle=orthogonalEdgeStyle;rounded=1;html=1;entryX=1;entryY=0.5;entryDx=0;entryDy=0;strokeColor=#FFFFFF;" parent="gRs2KocOYmxf3VAWl55H-133" source="gRs2KocOYmxf3VAWl55H-142" target="gRs2KocOYmxf3VAWl55H-138" edge="1">
                    <mxGeometry relative="1" as="geometry"/>
                </mxCell>
                <mxCell id="gRs2KocOYmxf3VAWl55H-142" value="&lt;ul&gt;&lt;li&gt;Signal Processing&lt;/li&gt;&lt;li&gt;Signal Filtering&lt;/li&gt;&lt;li&gt;Signal Mapping&lt;/li&gt;&lt;/ul&gt;" style="rounded=1;whiteSpace=wrap;html=1;strokeColor=#FFFFFF;fillColor=#333333;fontColor=#FFFFFF;" parent="gRs2KocOYmxf3VAWl55H-133" vertex="1">
                    <mxGeometry x="220" y="135" width="150" height="60" as="geometry"/>
                </mxCell>
                <mxCell id="gRs2KocOYmxf3VAWl55H-143" style="edgeStyle=orthogonalEdgeStyle;rounded=1;html=1;entryX=1;entryY=0.75;entryDx=0;entryDy=0;strokeColor=#FFFFFF;" parent="gRs2KocOYmxf3VAWl55H-133" source="gRs2KocOYmxf3VAWl55H-144" target="gRs2KocOYmxf3VAWl55H-142" edge="1">
                    <mxGeometry relative="1" as="geometry"/>
                </mxCell>
                <mxCell id="gRs2KocOYmxf3VAWl55H-144" value="HX711 Library" style="rounded=1;whiteSpace=wrap;html=1;strokeColor=#FFFFFF;fillColor=#333333;fontColor=#FFFFFF;" parent="gRs2KocOYmxf3VAWl55H-133" vertex="1">
                    <mxGeometry x="410" y="215" width="120" height="60" as="geometry"/>
                </mxCell>
                <mxCell id="gRs2KocOYmxf3VAWl55H-145" style="edgeStyle=orthogonalEdgeStyle;rounded=1;html=1;entryX=0.5;entryY=1;entryDx=0;entryDy=0;fontColor=#FFFFFF;strokeColor=#FFFFFF;" parent="gRs2KocOYmxf3VAWl55H-133" source="gRs2KocOYmxf3VAWl55H-146" target="gRs2KocOYmxf3VAWl55H-144" edge="1">
                    <mxGeometry relative="1" as="geometry"/>
                </mxCell>
                <mxCell id="gRs2KocOYmxf3VAWl55H-146" value="Serial Interface" style="rounded=1;whiteSpace=wrap;html=1;strokeColor=#FFFFFF;fillColor=#333333;fontColor=#FFFFFF;" parent="gRs2KocOYmxf3VAWl55H-133" vertex="1">
                    <mxGeometry x="420" y="314" width="90" height="40" as="geometry"/>
                </mxCell>
                <mxCell id="gRs2KocOYmxf3VAWl55H-147" style="edgeStyle=orthogonalEdgeStyle;rounded=1;html=1;entryX=1;entryY=0.25;entryDx=0;entryDy=0;strokeColor=#FFFFFF;exitX=0.5;exitY=0;exitDx=0;exitDy=0;" parent="gRs2KocOYmxf3VAWl55H-133" source="gRs2KocOYmxf3VAWl55H-148" target="gRs2KocOYmxf3VAWl55H-142" edge="1">
                    <mxGeometry relative="1" as="geometry"/>
                </mxCell>
                <mxCell id="gRs2KocOYmxf3VAWl55H-148" value="Analog Inputs" style="rounded=1;whiteSpace=wrap;html=1;fillColor=#333333;strokeColor=#FFFFFF;fontColor=#FFFFFF;" parent="gRs2KocOYmxf3VAWl55H-133" vertex="1">
                    <mxGeometry x="550" y="259" width="90" height="95" as="geometry"/>
                </mxCell>
                <mxCell id="gRs2KocOYmxf3VAWl55H-149" value="HX711 Load Cell Amplifier 24-Bit" style="swimlane;whiteSpace=wrap;html=1;strokeColor=#FFFFFF;" parent="gRs2KocOYmxf3VAWl55H-132" vertex="1">
                    <mxGeometry x="600" y="520" width="310" height="170" as="geometry">
                        <mxRectangle x="321" y="330" width="140" height="30" as="alternateBounds"/>
                    </mxGeometry>
                </mxCell>
                <mxCell id="gRs2KocOYmxf3VAWl55H-150" value="" style="sketch=0;pointerEvents=1;shadow=0;dashed=0;html=1;strokeColor=#666666;fillColor=#f5f5f5;aspect=fixed;labelPosition=center;verticalLabelPosition=bottom;verticalAlign=top;align=center;outlineConnect=0;shape=mxgraph.vvd.cpu;fontColor=#333333;" parent="gRs2KocOYmxf3VAWl55H-149" vertex="1">
                    <mxGeometry x="150" y="70" width="45" height="45" as="geometry"/>
                </mxCell>
                <mxCell id="gRs2KocOYmxf3VAWl55H-151" value="Serial Interface" style="rounded=1;whiteSpace=wrap;html=1;fillColor=#333333;strokeColor=#FFFFFF;fontColor=#FFFFFF;" parent="gRs2KocOYmxf3VAWl55H-149" vertex="1">
                    <mxGeometry x="230" y="40" width="100" height="30" as="geometry"/>
                </mxCell>
                <mxCell id="gRs2KocOYmxf3VAWl55H-152" style="edgeStyle=orthogonalEdgeStyle;rounded=1;html=1;exitX=0.5;exitY=0;exitDx=0;exitDy=0;entryX=0;entryY=0.5;entryDx=0;entryDy=0;strokeColor=#FFFFFF;" parent="gRs2KocOYmxf3VAWl55H-149" source="gRs2KocOYmxf3VAWl55H-153" target="gRs2KocOYmxf3VAWl55H-151" edge="1">
                    <mxGeometry relative="1" as="geometry"/>
                </mxCell>
                <mxCell id="gRs2KocOYmxf3VAWl55H-153" value="Analog Inputs" style="rounded=1;whiteSpace=wrap;html=1;strokeColor=#FFFFFF;fillColor=#333333;fontColor=#FFFFFF;" parent="gRs2KocOYmxf3VAWl55H-149" vertex="1">
                    <mxGeometry x="40" y="90" width="90" height="95" as="geometry"/>
                </mxCell>
                <mxCell id="gRs2KocOYmxf3VAWl55H-154" style="edgeStyle=orthogonalEdgeStyle;rounded=1;html=1;strokeColor=#FFFFFF;" parent="gRs2KocOYmxf3VAWl55H-132" source="gRs2KocOYmxf3VAWl55H-151" target="28" edge="1">
                    <mxGeometry relative="1" as="geometry">
                        <Array as="points">
                            <mxPoint x="960" y="575"/>
                            <mxPoint x="960" y="670"/>
                            <mxPoint x="1070" y="670"/>
                        </Array>
                    </mxGeometry>
                </mxCell>
                <mxCell id="gRs2KocOYmxf3VAWl55H-155" style="edgeStyle=orthogonalEdgeStyle;rounded=1;html=1;entryX=0.5;entryY=1;entryDx=0;entryDy=0;exitX=1;exitY=0.5;exitDx=0;exitDy=0;strokeColor=#FFFFFF;" parent="gRs2KocOYmxf3VAWl55H-132" source="7" target="gRs2KocOYmxf3VAWl55H-153" edge="1">
                    <mxGeometry relative="1" as="geometry">
                        <mxPoint x="1110" y="560" as="sourcePoint"/>
                    </mxGeometry>
                </mxCell>
                <mxCell id="gRs2KocOYmxf3VAWl55H-156" value="Brake Pedal" style="swimlane;whiteSpace=wrap;html=1;strokeColor=#FFFFFF;" parent="gRs2KocOYmxf3VAWl55H-132" vertex="1">
                    <mxGeometry x="440" y="740" width="200" height="140" as="geometry"/>
                </mxCell>
                <mxCell id="6" value="" style="group" parent="gRs2KocOYmxf3VAWl55H-156" vertex="1" connectable="0">
                    <mxGeometry x="40" y="40" width="120" height="80" as="geometry"/>
                </mxCell>
                <mxCell id="7" value="" style="rounded=1;whiteSpace=wrap;html=1;strokeColor=#FFFFFF;fillColor=#333333;fontColor=#FFFFFF;" parent="6" vertex="1">
                    <mxGeometry width="120" height="80" as="geometry"/>
                </mxCell>
                <mxCell id="8" value="" style="pointerEvents=1;verticalLabelPosition=bottom;shadow=0;dashed=0;align=center;html=1;verticalAlign=top;shape=mxgraph.electrical.miscellaneous.crystal_1;fillColor=none;strokeColor=#FFFFFF;" parent="6" vertex="1">
                    <mxGeometry x="10" y="30" width="100" height="40" as="geometry"/>
                </mxCell>
                <mxCell id="9" value="Load Cell" style="text;html=1;strokeColor=none;fillColor=none;align=center;verticalAlign=middle;whiteSpace=wrap;rounded=0;fontColor=#FFFFFF;" parent="6" vertex="1">
                    <mxGeometry x="30" width="60" height="30" as="geometry"/>
                </mxCell>
                <mxCell id="gRs2KocOYmxf3VAWl55H-161" value="Handbrake" style="swimlane;whiteSpace=wrap;html=1;strokeColor=#FFFFFF;" parent="gRs2KocOYmxf3VAWl55H-132" vertex="1">
                    <mxGeometry x="1390" y="740" width="200" height="140" as="geometry"/>
                </mxCell>
                <mxCell id="13" value="" style="group" parent="gRs2KocOYmxf3VAWl55H-161" vertex="1" connectable="0">
                    <mxGeometry x="40" y="40" width="120" height="80" as="geometry"/>
                </mxCell>
                <mxCell id="10" value="" style="rounded=1;whiteSpace=wrap;html=1;strokeColor=#FFFFFF;fillColor=#333333;fontColor=#FFFFFF;" parent="13" vertex="1">
                    <mxGeometry width="120" height="80" as="geometry"/>
                </mxCell>
                <mxCell id="11" value="&lt;font color=&quot;#ffffff&quot;&gt;Potentiometer&lt;/font&gt;" style="text;html=1;strokeColor=none;fillColor=none;align=center;verticalAlign=middle;whiteSpace=wrap;rounded=0;" parent="13" vertex="1">
                    <mxGeometry x="30" width="60" height="30" as="geometry"/>
                </mxCell>
                <mxCell id="12" value="" style="pointerEvents=1;verticalLabelPosition=bottom;shadow=0;dashed=0;align=center;html=1;verticalAlign=top;shape=mxgraph.electrical.resistors.potentiometer_1;fillColor=#333333;strokeColor=#FFFFFF;" parent="13" vertex="1">
                    <mxGeometry x="10" y="30" width="100" height="40" as="geometry"/>
                </mxCell>
                <mxCell id="gRs2KocOYmxf3VAWl55H-166" value="Clutch Pedal" style="swimlane;whiteSpace=wrap;html=1;strokeColor=#FFFFFF;" parent="gRs2KocOYmxf3VAWl55H-132" vertex="1">
                    <mxGeometry x="1130" y="740" width="200" height="140" as="geometry"/>
                </mxCell>
                <mxCell id="14" value="" style="group" parent="gRs2KocOYmxf3VAWl55H-166" vertex="1" connectable="0">
                    <mxGeometry x="40" y="40" width="120" height="80" as="geometry"/>
                </mxCell>
                <mxCell id="15" value="" style="rounded=1;whiteSpace=wrap;html=1;strokeColor=#FFFFFF;fillColor=#333333;fontColor=#FFFFFF;" parent="14" vertex="1">
                    <mxGeometry width="120" height="80" as="geometry"/>
                </mxCell>
                <mxCell id="16" value="&lt;font color=&quot;#ffffff&quot;&gt;Potentiometer&lt;/font&gt;" style="text;html=1;strokeColor=none;fillColor=none;align=center;verticalAlign=middle;whiteSpace=wrap;rounded=0;" parent="14" vertex="1">
                    <mxGeometry x="30" width="60" height="30" as="geometry"/>
                </mxCell>
                <mxCell id="17" value="" style="pointerEvents=1;verticalLabelPosition=bottom;shadow=0;dashed=0;align=center;html=1;verticalAlign=top;shape=mxgraph.electrical.resistors.potentiometer_1;fillColor=#333333;strokeColor=#FFFFFF;" parent="14" vertex="1">
                    <mxGeometry x="10" y="30" width="100" height="40" as="geometry"/>
                </mxCell>
                <mxCell id="gRs2KocOYmxf3VAWl55H-171" value="Gas Pedal" style="swimlane;whiteSpace=wrap;html=1;strokeColor=#FFFFFF;" parent="gRs2KocOYmxf3VAWl55H-132" vertex="1">
                    <mxGeometry x="810" y="740" width="200" height="140" as="geometry"/>
                </mxCell>
                <mxCell id="18" value="" style="group" parent="gRs2KocOYmxf3VAWl55H-171" vertex="1" connectable="0">
                    <mxGeometry x="40" y="40" width="120" height="80" as="geometry"/>
                </mxCell>
                <mxCell id="19" value="" style="rounded=1;whiteSpace=wrap;html=1;strokeColor=#FFFFFF;fillColor=#333333;fontColor=#FFFFFF;" parent="18" vertex="1">
                    <mxGeometry width="120" height="80" as="geometry"/>
                </mxCell>
                <mxCell id="20" value="&lt;font color=&quot;#ffffff&quot;&gt;Potentiometer&lt;/font&gt;" style="text;html=1;strokeColor=none;fillColor=none;align=center;verticalAlign=middle;whiteSpace=wrap;rounded=0;" parent="18" vertex="1">
                    <mxGeometry x="30" width="60" height="30" as="geometry"/>
                </mxCell>
                <mxCell id="21" value="" style="pointerEvents=1;verticalLabelPosition=bottom;shadow=0;dashed=0;align=center;html=1;verticalAlign=top;shape=mxgraph.electrical.resistors.potentiometer_1;fillColor=#333333;strokeColor=#FFFFFF;" parent="18" vertex="1">
                    <mxGeometry x="10" y="30" width="100" height="40" as="geometry"/>
                </mxCell>
                <mxCell id="gRs2KocOYmxf3VAWl55H-176" style="edgeStyle=orthogonalEdgeStyle;rounded=1;html=1;strokeColor=#FFFFFF;exitX=0;exitY=0.5;exitDx=0;exitDy=0;" parent="gRs2KocOYmxf3VAWl55H-132" source="10" target="25" edge="1">
                    <mxGeometry relative="1" as="geometry">
                        <mxPoint x="1940" y="140" as="sourcePoint"/>
                        <Array as="points">
                            <mxPoint x="1360" y="820"/>
                            <mxPoint x="1360" y="660"/>
                            <mxPoint x="1414" y="660"/>
                        </Array>
                    </mxGeometry>
                </mxCell>
                <mxCell id="gRs2KocOYmxf3VAWl55H-177" style="edgeStyle=orthogonalEdgeStyle;rounded=1;html=1;strokeColor=#FFFFFF;exitX=0;exitY=0.5;exitDx=0;exitDy=0;" parent="gRs2KocOYmxf3VAWl55H-132" source="15" target="28" edge="1">
                    <mxGeometry relative="1" as="geometry">
                        <mxPoint x="1940" y="320" as="sourcePoint"/>
                        <Array as="points">
                            <mxPoint x="1100" y="820"/>
                        </Array>
                    </mxGeometry>
                </mxCell>
                <mxCell id="gRs2KocOYmxf3VAWl55H-178" style="edgeStyle=orthogonalEdgeStyle;rounded=1;html=1;strokeColor=#FFFFFF;" parent="gRs2KocOYmxf3VAWl55H-132" target="28" edge="1">
                    <mxGeometry relative="1" as="geometry">
                        <Array as="points">
                            <mxPoint x="1086" y="820"/>
                        </Array>
                        <mxPoint x="970" y="820" as="sourcePoint"/>
                    </mxGeometry>
                </mxCell>
                <mxCell id="gRs2KocOYmxf3VAWl55H-179" value="PC" style="swimlane;whiteSpace=wrap;html=1;strokeColor=#F0F0F0;" parent="gRs2KocOYmxf3VAWl55H-132" vertex="1">
                    <mxGeometry x="710" y="-430" width="380" height="260" as="geometry"/>
                </mxCell>
                <mxCell id="gRs2KocOYmxf3VAWl55H-181" value="USB port" style="rounded=1;whiteSpace=wrap;html=1;fillColor=#333333;strokeColor=#F0F0F0;fontColor=#FFFFFF;" parent="gRs2KocOYmxf3VAWl55H-179" vertex="1">
                    <mxGeometry x="-40" y="135" width="100" height="30" as="geometry"/>
                </mxCell>
                <mxCell id="gRs2KocOYmxf3VAWl55H-182" style="edgeStyle=orthogonalEdgeStyle;rounded=1;html=1;entryX=1;entryY=0.25;entryDx=0;entryDy=0;startArrow=classic;startFill=1;endArrow=none;endFill=0;strokeColor=#ffffff;fillColor=#f5f5f5;exitX=0;exitY=0.5;exitDx=0;exitDy=0;" parent="gRs2KocOYmxf3VAWl55H-179" source="gRs2KocOYmxf3VAWl55H-185" target="gRs2KocOYmxf3VAWl55H-181" edge="1">
                    <mxGeometry relative="1" as="geometry">
                        <mxPoint x="250" y="100" as="sourcePoint"/>
                    </mxGeometry>
                </mxCell>
                <mxCell id="gRs2KocOYmxf3VAWl55H-183" style="edgeStyle=orthogonalEdgeStyle;rounded=1;html=1;entryX=1;entryY=0.75;entryDx=0;entryDy=0;startArrow=classic;startFill=1;endArrow=classic;endFill=1;strokeColor=#FAFAFA;fillColor=#f5f5f5;" parent="gRs2KocOYmxf3VAWl55H-179" source="gRs2KocOYmxf3VAWl55H-184" target="gRs2KocOYmxf3VAWl55H-181" edge="1">
                    <mxGeometry relative="1" as="geometry"/>
                </mxCell>
                <mxCell id="gRs2KocOYmxf3VAWl55H-184" value="Calibration SW" style="rounded=1;whiteSpace=wrap;html=1;fillColor=#333333;strokeColor=#FFFFFF;fontColor=#FFFFFF;" parent="gRs2KocOYmxf3VAWl55H-179" vertex="1">
                    <mxGeometry x="100" y="180" width="120" height="60" as="geometry"/>
                </mxCell>
                <mxCell id="gRs2KocOYmxf3VAWl55H-185" value="Game Controllers" style="rounded=1;whiteSpace=wrap;html=1;fillColor=#333333;strokeColor=#F0F0F0;fontColor=#FFFFFF;" parent="gRs2KocOYmxf3VAWl55H-179" vertex="1">
                    <mxGeometry x="100" y="61.5" width="120" height="60" as="geometry"/>
                </mxCell>
                <mxCell id="gRs2KocOYmxf3VAWl55H-180" value="" style="fontColor=#0066CC;verticalAlign=top;verticalLabelPosition=bottom;labelPosition=center;align=center;html=1;outlineConnect=0;fillColor=#CCCCCC;strokeColor=#6881B3;gradientColor=none;gradientDirection=north;strokeWidth=2;shape=mxgraph.networks.pc;" parent="gRs2KocOYmxf3VAWl55H-179" vertex="1">
                    <mxGeometry x="230" y="30" width="210" height="170" as="geometry"/>
                </mxCell>
                <mxCell id="gRs2KocOYmxf3VAWl55H-187" value="" style="sketch=0;pointerEvents=1;shadow=0;dashed=0;html=1;strokeColor=#B3B3B3;fillColor=#f5f5f5;aspect=fixed;labelPosition=center;verticalLabelPosition=bottom;verticalAlign=top;align=center;outlineConnect=0;shape=mxgraph.vvd.flash_drive;rotation=-90;fontColor=#333333;" parent="gRs2KocOYmxf3VAWl55H-132" vertex="1">
                    <mxGeometry x="487" y="150" width="21" height="50" as="geometry"/>
                </mxCell>
                <mxCell id="gRs2KocOYmxf3VAWl55H-188" style="edgeStyle=orthogonalEdgeStyle;rounded=1;html=1;startArrow=none;startFill=0;endArrow=none;endFill=0;strokeColor=#FFFFFF;" parent="gRs2KocOYmxf3VAWl55H-132" source="gRs2KocOYmxf3VAWl55H-189" target="gRs2KocOYmxf3VAWl55H-187" edge="1">
                    <mxGeometry relative="1" as="geometry">
                        <mxPoint x="400" y="120" as="targetPoint"/>
                        <Array as="points">
                            <mxPoint x="450" y="-280"/>
                            <mxPoint x="450" y="175"/>
                        </Array>
                    </mxGeometry>
                </mxCell>
                <mxCell id="gRs2KocOYmxf3VAWl55H-189" value="" style="sketch=0;pointerEvents=1;shadow=0;dashed=0;html=1;strokeColor=#B3B3B3;fillColor=#f5f5f5;aspect=fixed;labelPosition=center;verticalLabelPosition=bottom;verticalAlign=top;align=center;outlineConnect=0;shape=mxgraph.vvd.flash_drive;rotation=-90;fontColor=#333333;" parent="gRs2KocOYmxf3VAWl55H-132" vertex="1">
                    <mxGeometry x="640" y="-305" width="21" height="50" as="geometry"/>
                </mxCell>
                <mxCell id="34" style="edgeStyle=orthogonalEdgeStyle;html=1;strokeColor=#FFFFFF;strokeWidth=5;fontColor=#FFFFFF;endArrow=none;endFill=0;" parent="gRs2KocOYmxf3VAWl55H-132" source="25" target="26" edge="1">
                    <mxGeometry relative="1" as="geometry">
                        <Array as="points">
                            <mxPoint x="1414" y="520"/>
                            <mxPoint x="1231" y="520"/>
                        </Array>
                    </mxGeometry>
                </mxCell>
                <mxCell id="25" value="" style="sketch=0;pointerEvents=1;shadow=0;dashed=0;html=1;strokeColor=none;fillColor=#505050;labelPosition=center;verticalLabelPosition=bottom;verticalAlign=top;outlineConnect=0;align=center;shape=mxgraph.office.devices.data_jack;rounded=1;fontColor=#FFFFFF;" parent="gRs2KocOYmxf3VAWl55H-132" vertex="1">
                    <mxGeometry x="1390.5" y="589.5" width="47" height="47" as="geometry"/>
                </mxCell>
                <mxCell id="27" style="edgeStyle=orthogonalEdgeStyle;html=1;entryX=0.75;entryY=1;entryDx=0;entryDy=0;strokeColor=#FFFFFF;fontColor=#FFFFFF;" parent="gRs2KocOYmxf3VAWl55H-132" source="26" target="gRs2KocOYmxf3VAWl55H-148" edge="1">
                    <mxGeometry relative="1" as="geometry"/>
                </mxCell>
                <mxCell id="26" value="" style="sketch=0;pointerEvents=1;shadow=0;dashed=0;html=1;strokeColor=none;fillColor=#505050;labelPosition=center;verticalLabelPosition=bottom;verticalAlign=top;outlineConnect=0;align=center;shape=mxgraph.office.devices.data_jack;rounded=1;fontColor=#FFFFFF;" parent="gRs2KocOYmxf3VAWl55H-132" vertex="1">
                    <mxGeometry x="1207" y="410" width="47" height="47" as="geometry"/>
                </mxCell>
                <mxCell id="28" value="" style="sketch=0;pointerEvents=1;shadow=0;dashed=0;html=1;strokeColor=none;fillColor=#505050;labelPosition=center;verticalLabelPosition=bottom;verticalAlign=top;outlineConnect=0;align=center;shape=mxgraph.office.devices.data_jack;rounded=1;fontColor=#FFFFFF;" parent="gRs2KocOYmxf3VAWl55H-132" vertex="1">
                    <mxGeometry x="1063" y="590" width="47" height="47" as="geometry"/>
                </mxCell>
                <mxCell id="30" style="edgeStyle=orthogonalEdgeStyle;html=1;entryX=0.5;entryY=1;entryDx=0;entryDy=0;strokeColor=#FFFFFF;fontColor=#FFFFFF;" parent="gRs2KocOYmxf3VAWl55H-132" source="29" target="gRs2KocOYmxf3VAWl55H-148" edge="1">
                    <mxGeometry relative="1" as="geometry">
                        <Array as="points">
                            <mxPoint x="1100" y="390"/>
                            <mxPoint x="1165" y="390"/>
                        </Array>
                    </mxGeometry>
                </mxCell>
                <mxCell id="31" style="edgeStyle=orthogonalEdgeStyle;html=1;entryX=0.25;entryY=1;entryDx=0;entryDy=0;strokeColor=#FFFFFF;fontColor=#FFFFFF;" parent="gRs2KocOYmxf3VAWl55H-132" source="29" target="gRs2KocOYmxf3VAWl55H-148" edge="1">
                    <mxGeometry relative="1" as="geometry">
                        <Array as="points">
                            <mxPoint x="1090" y="380"/>
                            <mxPoint x="1143" y="380"/>
                        </Array>
                    </mxGeometry>
                </mxCell>
                <mxCell id="32" style="edgeStyle=orthogonalEdgeStyle;html=1;entryX=0.5;entryY=1;entryDx=0;entryDy=0;strokeColor=#FFFFFF;fontColor=#FFFFFF;" parent="gRs2KocOYmxf3VAWl55H-132" source="29" target="gRs2KocOYmxf3VAWl55H-146" edge="1">
                    <mxGeometry relative="1" as="geometry">
                        <Array as="points">
                            <mxPoint x="1080" y="382"/>
                            <mxPoint x="1035" y="382"/>
                        </Array>
                    </mxGeometry>
                </mxCell>
                <mxCell id="33" style="edgeStyle=orthogonalEdgeStyle;html=1;strokeColor=#FFFFFF;fontColor=#FFFFFF;endArrow=none;endFill=0;strokeWidth=5;" parent="gRs2KocOYmxf3VAWl55H-132" source="29" target="28" edge="1">
                    <mxGeometry relative="1" as="geometry"/>
                </mxCell>
                <mxCell id="29" value="" style="sketch=0;pointerEvents=1;shadow=0;dashed=0;html=1;strokeColor=none;fillColor=#505050;labelPosition=center;verticalLabelPosition=bottom;verticalAlign=top;outlineConnect=0;align=center;shape=mxgraph.office.devices.data_jack;rounded=1;fontColor=#FFFFFF;" parent="gRs2KocOYmxf3VAWl55H-132" vertex="1">
                    <mxGeometry x="1063" y="410" width="47" height="47" as="geometry"/>
                </mxCell>
            </root>
        </mxGraphModel>
    </diagram>
</mxfile>